<svg xmlns="http://www.w3.org/2000/svg" viewBox="0 0 24 24" fill="#ffffff"><path d="M22 5.92c-.64.28-1.33.46-2.05.55.74-.44 1.3-1.13 1.57-1.96-.7.42-1.48.72-2.3.88C18.6 4.36 17.64 4 16.58 4c-1.45 0-2.63.98-3.06 2.3C12.9 6.2 12.63 6 12.3 6c-.5 0-.98.19-1.35.54-.45.44-.64 1.1-.52 1.75.33 1.7 1.42 3.02 2.86 3.67-.35 0-.7-.11-1-.28-.25-.1-.48-.24-.7-.4v.04c0 1.58 1.12 2.9 2.6 3.2-.26.07-.53.1-.8.1-.2 0-.4 0-.6-.03.4 1.27 1.57 2.2 2.95 2.22-1.08.84-2.44 1.34-3.92 1.34-.25 0-.5-.01-.75-.04C9.9 19.51 11.49 20 13.2 20c6.3 0 9.75-5.3 9.75-9.9v-.45c.67-.47 1.25-1.05 1.7-1.72-.61.27-1.27.44-1.95.52z"/></svg>